<?xml version="1.0" encoding="UTF-8"?>
<svg width="84px" height="27px" viewBox="0 0 84 27" version="1.1" xmlns="http://www.w3.org/2000/svg" xmlns:xlink="http://www.w3.org/1999/xlink">
    <!-- Generator: Sketch 43.2 (39069) - http://www.bohemiancoding.com/sketch -->
    <title>logo</title>
    <desc>Created with Sketch.</desc>
    <defs>
        <polygon id="path-1" points="0.465506942 22.0938086 21.8835332 22.0938086 21.8835332 0.271129456 0.465506942 0.271129456"></polygon>
    </defs>
    <g id="Symbols" stroke="none" stroke-width="1" fill="none" fill-rule="evenodd">
        <g id="Unit/Header" transform="translate(-145.000000, -12.000000)">
            <g>
                <rect id="Mask" x="0" y="0" width="375" height="51"></rect>
                <g id="Group-4" transform="translate(16.000000, 12.000000)">
                    <g id="logo" transform="translate(131.000000, 1.000000)">
                        <g id="Page-1" transform="translate(0.615385, 0.000000)">
                            <path d="M29.2163242,2.19862214 C29.2163242,3.41138011 28.2350709,4.3945546 27.0194311,4.3945546 C25.804752,4.3945546 24.8234987,3.41138011 24.8234987,2.19862214 C24.8234987,0.983462664 25.8071535,0.000288180113 27.0194311,0.000288180113 C28.2350709,0.000288180113 29.2163242,0.983462664 29.2163242,2.19862214" id="Fill-1" fill="#D94A7E"></path>
                            <path d="M21.7010672,4.84118574 C21.7010672,5.41466417 21.4244143,5.70092308 20.8787932,5.70092308 L5.11101839,5.69756098 C4.68643302,5.69756098 4.31612158,5.84885553 3.99912345,6.15384615 C3.68212533,6.45739587 3.52266567,6.81810131 3.52266567,7.23596248 L3.52266567,11.324758 C3.52266567,11.6028518 3.66819662,11.7320525 3.96502214,11.7320525 L20.2078139,11.7320525 C20.7587182,11.7320525 21.0339302,12.0173508 21.0339302,12.5754597 L21.0339302,14.4702439 C21.0339302,15.0302739 20.7572773,15.3011632 20.2078139,15.3011632 L3.96502214,15.3011632 C3.66819662,15.3011632 3.52026417,15.4524578 3.52026417,15.7473621 L3.52026417,22.5633021 C3.52026417,23.1098837 3.24457186,23.3850957 2.69510844,23.3850957 L0.823858912,23.3850957 C0.275836398,23.3850957 0.000144090056,23.1098837 0.000144090056,22.5633021 L0.000144090056,7.24172608 C0.000144090056,5.84405253 0.501577486,4.64282176 1.49483827,3.63851407 C2.49050056,2.63180488 3.69221163,2.12845028 5.11197899,2.12845028 L20.8787932,2.12845028 C21.4244143,2.12845028 21.7010672,2.41855159 21.7010672,2.99491182 L21.7010672,4.84118574 Z" id="Fill-3" fill="#828282"></path>
                            <g id="Group-7" transform="translate(32.180113, 1.291479)">
                                <mask id="mask-2" fill="white">
                                    <use xlink:href="#path-1"></use>
                                </mask>
                                <g id="Clip-6"></g>
                                <path d="M21.8835332,18.6017861 C21.8796908,20.2083902 21.1203362,21.2981914 19.5982649,21.8678274 C19.2135445,22.0186417 18.8158559,22.0940488 18.3922311,22.0940488 C17.3374919,22.0940488 16.4619047,21.6795497 15.7645088,20.8539137 L4.30934934,4.25521951 C4.23730432,4.19422139 4.16766079,4.17212758 4.09465516,4.19422139 C4.02116923,4.2360075 3.98706792,4.28739962 3.98706792,4.35272045 L3.98706792,21.2679325 C3.98706792,21.8164353 3.70273021,22.0940488 3.13789719,22.0940488 L1.28585966,22.0940488 C0.737356848,22.0940488 0.465506942,21.8164353 0.465506942,21.2679325 L0.465506942,3.72784991 C0.465506942,2.11836398 1.22630244,1.04297186 2.73636623,0.491106942 C3.13789719,0.343174484 3.55335685,0.271129456 3.97794221,0.271129456 C5.04228743,0.271129456 5.91259137,0.657771107 6.59221614,1.43729831 L18.0781148,18.0604878 C18.11846,18.1186041 18.1813794,18.1378161 18.2683137,18.1186041 C18.3341148,18.0965103 18.364854,18.043197 18.364854,17.9596248 L18.364854,1.38446529 C18.364854,0.814348968 18.6515932,0.528570356 19.2135445,0.528570356 L21.036764,0.528570356 C21.6039985,0.528570356 21.8835332,0.814348968 21.8835332,1.38782739 L21.8835332,18.6017861 Z" id="Fill-5" fill="#828282" mask="url(#mask-2)"></path>
                            </g>
                            <path d="M78.7470409,22.5494694 C78.7470409,23.1051767 78.4713486,23.3842311 77.9228458,23.3842311 L62.940842,23.3842311 C61.5268383,23.3784675 60.3179227,22.8827977 59.3261028,21.8876158 C58.3333223,20.8919535 57.8376525,19.6859197 57.8376525,18.2632705 L57.8376525,7.23749944 C57.8376525,5.83838499 58.3342829,4.63619362 59.3313861,3.63188593 C60.3217651,2.62613734 61.5268383,2.12182214 62.9485268,2.12662514 L77.9281291,2.12662514 C78.475191,2.12662514 78.7508833,2.41048255 78.7508833,2.98444128 L78.7508833,4.8331167 C78.7508833,5.40851632 78.475191,5.69429493 77.9228458,5.69429493 L62.9451647,5.69429493 C62.5191385,5.69429493 62.1512285,5.84558949 61.8342304,6.14913921 C61.5157914,6.45749193 61.3577726,6.82059887 61.3577726,7.23990094 L61.3577726,18.2291692 C61.3577726,18.6753681 61.511949,19.049522 61.830388,19.3554732 C62.1473861,19.657582 62.5152961,19.8127189 62.940842,19.8127189 L77.9228458,19.8127189 C78.4727895,19.8127189 78.7470409,20.0980173 78.7470409,20.6532443 L78.7470409,22.5494694 Z" id="Fill-8" fill="#828282"></path>
                            <path d="M28.0896841,23.3852878 L25.9547497,23.3852878 C25.5671475,23.3852878 25.2530311,23.0711715 25.2530311,22.6835692 L25.2530311,7.7673666 C25.2530311,7.38024465 25.5671475,7.06564803 25.9547497,7.06564803 L28.0896841,7.06564803 C28.4772863,7.06564803 28.7914026,7.38024465 28.7914026,7.7673666 L28.7914026,22.6835692 C28.7914026,23.0711715 28.4772863,23.3852878 28.0896841,23.3852878" id="Fill-10" fill="#D94A7E"></path>
                        </g>
                    </g>
                </g>
            </g>
        </g>
    </g>
</svg>